<?xml version="1.0" standalone="no"?>
<!DOCTYPE svg PUBLIC "-//W3C//DTD SVG 20010904//EN"
 "http://www.w3.org/TR/2001/REC-SVG-20010904/DTD/svg10.dtd">
<svg version="1.0" xmlns="http://www.w3.org/2000/svg"
 width="1280.000000pt" height="1280.000000pt" viewBox="0 0 1280.000000 1280.000000"
 preserveAspectRatio="xMidYMid meet">
<metadata>
Created by potrace 1.16, written by Peter Selinger 2001-2019
</metadata>
<g transform="translate(0.000000,1280.000000) scale(0.100000,-0.100000)"
fill="#000000" stroke="none">
<path d="M6278 11190 c-295 -50 -540 -256 -632 -531 -47 -139 -50 -193 -31
-508 17 -272 17 -288 0 -372 -27 -137 -18 -316 23 -434 l31 -90 86 -1402 87
-1401 -121 -1979 c-67 -1088 -121 -2026 -121 -2084 0 -363 249 -680 604 -769
109 -27 283 -27 392 0 223 56 419 212 519 415 61 122 85 222 85 354 0 58 -54
996 -121 2085 l-121 1978 87 1402 86 1401 31 90 c27 78 32 107 36 218 3 98 0
149 -13 216 -17 84 -17 100 0 372 14 228 15 300 6 359 -16 102 -55 212 -103
295 -53 91 -192 230 -283 283 -155 91 -358 130 -527 102z"/>
</g>
</svg>
